<svg width="357" height="190" viewBox="0 0 357 190" fill="none" xmlns="http://www.w3.org/2000/svg">
<g filter="url(#filter0_d_17_7)">
<ellipse cx="235" cy="107.5" rx="118" ry="74.5" fill="#D9D9D9"/>
</g>
<g filter="url(#filter1_d_17_7)">
<ellipse cx="110.5" cy="75.5" rx="106.5" ry="75.5" fill="#AAB3D1"/>
</g>
<g filter="url(#filter2_d_17_7)">
<path d="M57.2493 86L60.3885 67.0909H73.5732L72.9453 70.8026H64.331L63.7031 74.6804H71.6435L71.0156 78.4013H63.0753L62.4474 82.2884H71.0618L70.4339 86H57.2493ZM92.5284 67.0909L89.3892 86H85.5114L79.8146 75.0866H79.6854L77.8665 86H73.2962L76.4354 67.0909H80.3686L86.0192 77.9858H86.1761L87.9673 67.0909H92.5284ZM106.786 73.2678C106.749 72.88 106.663 72.5384 106.528 72.2429C106.392 71.9413 106.208 71.6858 105.974 71.4766C105.74 71.2673 105.451 71.1103 105.106 71.0057C104.761 70.8949 104.361 70.8395 103.906 70.8395C102.995 70.8395 102.151 71.0611 101.376 71.5043C100.6 71.9474 99.9448 72.5937 99.4093 73.4432C98.8738 74.2865 98.5075 75.3113 98.3105 76.5178C98.1136 77.7304 98.1074 78.7644 98.2921 79.62C98.4829 80.4756 98.8645 81.1281 99.437 81.5774C100.009 82.0268 100.767 82.2514 101.708 82.2514C102.552 82.2514 103.296 82.116 103.943 81.8452C104.589 81.5682 105.112 81.1773 105.512 80.6726C105.919 80.1679 106.174 79.5739 106.279 78.8906L107.119 78.9922H102.521L103.075 75.6591H111.218L110.803 78.1612C110.526 79.8539 109.929 81.3035 109.012 82.5099C108.101 83.7164 106.962 84.6428 105.595 85.2891C104.235 85.9354 102.742 86.2585 101.117 86.2585C99.32 86.2585 97.8027 85.8677 96.5655 85.0859C95.3283 84.3042 94.4481 83.1901 93.9249 81.7436C93.4017 80.291 93.3032 78.5675 93.6294 76.5732C93.888 75.022 94.3465 73.6463 95.0051 72.446C95.6699 71.2396 96.4824 70.2178 97.4426 69.3807C98.409 68.5436 99.477 67.9096 100.646 67.4787C101.816 67.0478 103.032 66.8324 104.294 66.8324C105.383 66.8324 106.374 66.9893 107.267 67.3033C108.159 67.6172 108.922 68.0604 109.556 68.6328C110.19 69.2053 110.667 69.8854 110.987 70.6733C111.314 71.4612 111.455 72.326 111.412 73.2678H106.786ZM112.195 86L115.334 67.0909H119.904L117.393 82.2884H125.259L124.631 86H112.195ZM134.707 67.0909L131.568 86H126.997L130.137 67.0909H134.707ZM146.837 72.7969C146.886 72.1013 146.701 71.5627 146.283 71.1811C145.87 70.7995 145.218 70.6087 144.325 70.6087C143.734 70.6087 143.23 70.6856 142.811 70.8395C142.393 70.9872 142.063 71.1965 141.823 71.4673C141.583 71.732 141.432 72.0398 141.371 72.3906C141.315 72.6676 141.331 72.9138 141.417 73.1293C141.503 73.3447 141.654 73.5355 141.869 73.7017C142.091 73.8679 142.365 74.0125 142.691 74.1357C143.023 74.2588 143.396 74.3665 143.808 74.4588L145.359 74.8281C146.258 75.0312 147.037 75.3021 147.695 75.6406C148.36 75.973 148.899 76.3762 149.311 76.8501C149.723 77.3179 150.007 77.8565 150.161 78.4659C150.314 79.0753 150.327 79.7585 150.197 80.5156C150 81.7098 149.53 82.7346 148.785 83.5902C148.046 84.4458 147.08 85.1013 145.886 85.5568C144.698 86.0123 143.316 86.2401 141.74 86.2401C140.164 86.2401 138.826 86.0031 137.724 85.5291C136.628 85.049 135.834 84.3258 135.342 83.3594C134.849 82.393 134.717 81.1742 134.945 79.7031H139.312C139.244 80.3125 139.321 80.8203 139.543 81.2266C139.77 81.6328 140.121 81.9406 140.595 82.1499C141.069 82.3591 141.642 82.4638 142.312 82.4638C142.928 82.4638 143.467 82.3807 143.928 82.2145C144.396 82.0483 144.768 81.8175 145.045 81.522C145.329 81.2266 145.501 80.888 145.562 80.5064C145.624 80.1555 145.566 79.8509 145.387 79.5923C145.215 79.3338 144.919 79.1091 144.501 78.9183C144.088 78.7275 143.547 78.5552 142.876 78.4013L140.983 77.9396C139.42 77.558 138.235 76.9486 137.428 76.1115C136.628 75.2744 136.345 74.1387 136.579 72.7045C136.776 71.5289 137.262 70.5009 138.038 69.6207C138.819 68.7405 139.807 68.0573 141.001 67.571C142.202 67.0786 143.522 66.8324 144.962 66.8324C146.427 66.8324 147.658 67.0817 148.656 67.5803C149.659 68.0727 150.382 68.7682 150.825 69.6669C151.275 70.5594 151.404 71.6027 151.213 72.7969H146.837ZM151.601 86L154.74 67.0909H159.31L158.055 74.6804H165.506L166.761 67.0909H171.322L168.183 86H163.622L164.878 78.4013H157.427L156.171 86H151.601Z" fill="black"/>
</g>
<g filter="url(#filter3_d_17_7)">
<path d="M212.599 116L210.326 97.8182H215.182L215.963 109.732H216.114L221.21 97.8182H225.17L226.342 109.759H226.484L231.207 97.8182H236.054L227.753 116H223.518L222.089 104.974H221.947L216.825 116H212.599ZM252.403 107.193C252.071 109.152 251.42 110.806 250.449 112.156C249.485 113.499 248.31 114.517 246.925 115.21C245.546 115.902 244.063 116.249 242.477 116.249C240.802 116.249 239.352 115.876 238.127 115.13C236.902 114.384 236.011 113.298 235.455 111.872C234.904 110.445 234.798 108.714 235.135 106.678C235.455 104.719 236.097 103.062 237.062 101.707C238.032 100.351 239.213 99.3245 240.604 98.6261C242.001 97.9218 243.498 97.5696 245.096 97.5696C246.759 97.5696 248.2 97.9454 249.42 98.6971C250.645 99.4487 251.532 100.541 252.083 101.973C252.633 103.405 252.74 105.145 252.403 107.193ZM248.008 106.678C248.191 105.536 248.191 104.574 248.008 103.793C247.83 103.012 247.481 102.423 246.96 102.026C246.44 101.624 245.762 101.423 244.927 101.423C244.004 101.423 243.17 101.65 242.424 102.106C241.684 102.556 241.066 103.213 240.568 104.077C240.071 104.935 239.725 105.974 239.53 107.193C239.328 108.347 239.323 109.309 239.512 110.078C239.707 110.848 240.071 111.428 240.604 111.819C241.137 112.203 241.814 112.396 242.637 112.396C243.554 112.396 244.38 112.174 245.114 111.73C245.848 111.286 246.46 110.638 246.952 109.786C247.449 108.933 247.801 107.897 248.008 106.678ZM253.503 116L256.522 97.8182H264.032C265.394 97.8182 266.53 98.0638 267.442 98.555C268.353 99.0404 269.001 99.7388 269.386 100.65C269.771 101.556 269.859 102.63 269.652 103.873C269.451 105.128 269.001 106.196 268.303 107.078C267.61 107.954 266.717 108.623 265.622 109.084C264.533 109.546 263.296 109.777 261.911 109.777H257.161L257.747 106.314H261.68C262.337 106.314 262.905 106.228 263.384 106.057C263.864 105.879 264.246 105.613 264.53 105.258C264.82 104.897 265.012 104.435 265.107 103.873C265.195 103.311 265.154 102.846 264.982 102.479C264.817 102.106 264.524 101.828 264.104 101.645C263.689 101.455 263.157 101.36 262.506 101.36H260.339L257.898 116H253.503ZM265.116 107.69L268.267 116H263.473L260.419 107.69H265.116ZM270.251 116L273.27 97.8182H277.664L275.25 112.431H282.814L282.21 116H270.251ZM291.303 116H284.485L287.503 97.8182H294.117C295.964 97.8182 297.503 98.194 298.734 98.9457C299.971 99.6914 300.844 100.763 301.353 102.159C301.868 103.55 301.965 105.208 301.646 107.131C301.338 108.989 300.719 110.582 299.79 111.907C298.867 113.233 297.683 114.248 296.239 114.952C294.795 115.651 293.15 116 291.303 116ZM289.492 112.254H291.578C292.596 112.254 293.496 112.07 294.277 111.703C295.064 111.33 295.715 110.735 296.23 109.919C296.745 109.096 297.112 108.016 297.331 106.678C297.544 105.4 297.535 104.391 297.304 103.651C297.08 102.905 296.642 102.373 295.991 102.053C295.345 101.727 294.502 101.565 293.46 101.565H291.276L289.492 112.254Z" fill="black"/>
</g>
<defs>
<filter id="filter0_d_17_7" x="113" y="33" width="244" height="157" filterUnits="userSpaceOnUse" color-interpolation-filters="sRGB">
<feFlood flood-opacity="0" result="BackgroundImageFix"/>
<feColorMatrix in="SourceAlpha" type="matrix" values="0 0 0 0 0 0 0 0 0 0 0 0 0 0 0 0 0 0 127 0" result="hardAlpha"/>
<feOffset dy="4"/>
<feGaussianBlur stdDeviation="2"/>
<feComposite in2="hardAlpha" operator="out"/>
<feColorMatrix type="matrix" values="0 0 0 0 0 0 0 0 0 0 0 0 0 0 0 0 0 0 0.25 0"/>
<feBlend mode="normal" in2="BackgroundImageFix" result="effect1_dropShadow_17_7"/>
<feBlend mode="normal" in="SourceGraphic" in2="effect1_dropShadow_17_7" result="shape"/>
</filter>
<filter id="filter1_d_17_7" x="0" y="0" width="221" height="159" filterUnits="userSpaceOnUse" color-interpolation-filters="sRGB">
<feFlood flood-opacity="0" result="BackgroundImageFix"/>
<feColorMatrix in="SourceAlpha" type="matrix" values="0 0 0 0 0 0 0 0 0 0 0 0 0 0 0 0 0 0 127 0" result="hardAlpha"/>
<feOffset dy="4"/>
<feGaussianBlur stdDeviation="2"/>
<feComposite in2="hardAlpha" operator="out"/>
<feColorMatrix type="matrix" values="0 0 0 0 0 0 0 0 0 0 0 0 0 0 0 0 0 0 0.25 0"/>
<feBlend mode="normal" in2="BackgroundImageFix" result="effect1_dropShadow_17_7"/>
<feBlend mode="normal" in="SourceGraphic" in2="effect1_dropShadow_17_7" result="shape"/>
</filter>
<filter id="filter2_d_17_7" x="53.2493" y="66.8324" width="122.073" height="27.4261" filterUnits="userSpaceOnUse" color-interpolation-filters="sRGB">
<feFlood flood-opacity="0" result="BackgroundImageFix"/>
<feColorMatrix in="SourceAlpha" type="matrix" values="0 0 0 0 0 0 0 0 0 0 0 0 0 0 0 0 0 0 127 0" result="hardAlpha"/>
<feOffset dy="4"/>
<feGaussianBlur stdDeviation="2"/>
<feComposite in2="hardAlpha" operator="out"/>
<feColorMatrix type="matrix" values="0 0 0 0 0 0 0 0 0 0 0 0 0 0 0 0 0 0 0.25 0"/>
<feBlend mode="normal" in2="BackgroundImageFix" result="effect1_dropShadow_17_7"/>
<feBlend mode="normal" in="SourceGraphic" in2="effect1_dropShadow_17_7" result="shape"/>
</filter>
<filter id="filter3_d_17_7" x="206.326" y="97.5696" width="99.7991" height="26.679" filterUnits="userSpaceOnUse" color-interpolation-filters="sRGB">
<feFlood flood-opacity="0" result="BackgroundImageFix"/>
<feColorMatrix in="SourceAlpha" type="matrix" values="0 0 0 0 0 0 0 0 0 0 0 0 0 0 0 0 0 0 127 0" result="hardAlpha"/>
<feOffset dy="4"/>
<feGaussianBlur stdDeviation="2"/>
<feComposite in2="hardAlpha" operator="out"/>
<feColorMatrix type="matrix" values="0 0 0 0 0 0 0 0 0 0 0 0 0 0 0 0 0 0 0.25 0"/>
<feBlend mode="normal" in2="BackgroundImageFix" result="effect1_dropShadow_17_7"/>
<feBlend mode="normal" in="SourceGraphic" in2="effect1_dropShadow_17_7" result="shape"/>
</filter>
</defs>
</svg>
